<svg version="1.2" xmlns="http://www.w3.org/2000/svg" viewBox="0 0 256 256" width="256" height="256">
	<title>memoryjar_add_icon</title>
	<style>
		.s0 { fill: #ffffff;stroke: #000000;stroke-width: 4 } 
	</style>
	<path id="Jar Bottom" class="s0" d="m42.6 209.4q14.1 8.7 38.6 13.2 24.4 4.5 52.6 4.5c18.7 0 36.9 12.2 53.2 9.2 16.4-3 17.4-2.6 26.8-8.4l11.2-0.8q0 7.1-12.3 13.3-12.2 6.1-33.2 9.7-21 3.6-45.7 3.6-24.7 0-45.7-3.6-21.1-3.6-33.3-9.7-12.2-6.2-12.2-13.3v-17.7zm0-39.9v17.7q0 7.1 12.2 13.3 12.2 6.1 33.3 9.7 21 3.6 45.7 3.6c16.4 0 15-0.4 18.1-3.3 1.9-1.6 1.8-3.4 1.3-6.1-0.5-2.5 0.1-1.3-1-6.2l-0.7-3.7c-0.8-3.2-1.1-7-3.7-7.2-16.5-1.5 4.7-0.1-14-0.1q-28.2 0-52.6-4.5-24.5-4.5-38.6-13.2z"/>
	<path id="Jar Middle" class="s0" d="m42.6 131.4q14.1 8.7 38.6 13.2 24.4 4.5 52.6 4.5 28.1 0 52.6-4.5 24.4-4.5 38.6-13.2l-0.1 13.6c0 4.8-8.8 6.6-13.6 6.5-5.1-0.1-17.9 0.2-31.9 2.6-14 2.4-29.2 21.6-45.6 21.6q-24.7 0-45.7-3.6-21.1-3.6-33.3-9.7-12.2-6.2-12.2-13.3v-17.7zm0-39.9v17.7q0 7.1 12.2 13.3 12.2 6.1 33.3 9.7 21 3.6 45.7 3.6 24.7 0 45.7-3.6 21-3.6 33.2-9.7 12.3-6.2 12.3-13.3v-17.7q-14.2 8.7-38.6 13.2-24.5 4.5-52.6 4.5-28.2 0-52.6-4.5-24.5-4.5-38.6-13.2z"/>
	<path id="Jar Top" class="s0" d="m143.9 78.3c16-1.9 23.4-2.8 37.6-6.3 14.3-3.6 26.4-6.7 35-12v16q0 6.5-11.1 12.1-11.1 5.5-30.2 8.8-19 3.2-41.4 3.2-22.4 0-41.5-3.2c-12.7-2.2-22.2-5.5-22.2-5.5 0 0 61.4-3.7 73.8-13.1z"/>
	<path id="Lid" class="s0" d="m65.4 33.3q18.6-9.3 42.7-16.9 24.1-7.6 46.6-11.2 22.5-3.7 37.8-2.7 15.4 1 19.3 6.6l7.3 10.4q4 5.5-4.6 14.1-8.6 8.5-27.1 17.8-18.6 9.2-42.7 16.8-24.1 7.6-46.6 11.3-22.5 3.7-37.8 2.7-15.4-1.1-19.3-6.6l-7.3-10.4q-4-5.6 4.6-14.1 8.6-8.6 27.1-17.8z"/>
	<path id="Layer 1" class="s0" d="m224.8 198.7q-1.6 1.6-3.8 1.6h-21.3v21.1q0 2.1-1.6 3.7-1.6 1.6-3.8 1.6h-10.6q-2.2 0-3.8-1.6-1.6-1.6-1.6-3.7v-21.1h-21.3q-2.2 0-3.8-1.6-1.5-1.5-1.5-3.7v-10.5q0-2.1 1.5-3.7 1.6-1.6 3.8-1.6h21.3v-21.1q0-2.1 1.6-3.7 1.6-1.5 3.8-1.5h10.6q2.2 0 3.8 1.5 1.6 1.6 1.6 3.7v21.1h21.3q2.2 0 3.7 1.6 1.6 1.6 1.6 3.7v10.5q0 2.2-1.6 3.7zm-3.6-63.7q-14.7-8.5-32.1-8.5-17.4 0-32.1 8.5-14.7 8.5-23.3 23-8.6 14.6-8.6 31.8 0 17.2 8.6 31.7 8.6 14.5 23.3 23 14.7 8.5 32.1 8.5 17.4 0 32.1-8.5 14.7-8.5 23.3-23 8.6-14.5 8.6-31.7 0-17.2-8.6-31.8-8.6-14.5-23.3-23z"/>
</svg>